<svg viewBox="0 0 760 700" preserveAspectRatio="xMidYMid slice" xmlns="http://www.w3.org/2000/svg">
  <defs>
    <linearGradient id="skyGrad" x1="0" y1="0" x2="0" y2="1">
      <stop offset="0%" stop-color="#c8e6f7"/>
      <stop offset="55%" stop-color="#4a7ab5"/>
      <stop offset="100%" stop-color="#0d2f6e"/>
    </linearGradient>
    <linearGradient id="seaGrad" x1="0" y1="0" x2="0" y2="1">
      <stop offset="0%" stop-color="#0d2f6e"/>
      <stop offset="100%" stop-color="#06162e"/>
    </linearGradient>
    <linearGradient id="snowGrad" x1="0" y1="0" x2="0" y2="1">
      <stop offset="0%" stop-color="#f0f7ff"/>
      <stop offset="100%" stop-color="#d0e8f5"/>
    </linearGradient>
    <linearGradient id="rayGrad" x1="0" y1="0" x2="0" y2="1">
      <stop offset="0%" stop-color="#2a6db5" stop-opacity="0.6"/>
      <stop offset="100%" stop-color="#0d2f6e" stop-opacity="0"/>
    </linearGradient>
    <clipPath id="skyClip"><rect x="0" y="0" width="760" height="350"/></clipPath>
    <clipPath id="seaClip"><rect x="0" y="350" width="760" height="350"/></clipPath>
  </defs>
  <!-- Sky -->
  <rect x="0" y="0" width="760" height="350" fill="url(#skyGrad)"/>
  <!-- Mountain above water -->
  <polygon points="380,60 180,350 580,350" fill="#2a4a6e" clip-path="url(#skyClip)"/>
  <polygon points="380,60 300,200 460,200" fill="url(#snowGrad)" clip-path="url(#skyClip)"/>
  <!-- Mountain ridges -->
  <polygon points="250,350 180,270 320,350" fill="#1e3a5e" clip-path="url(#skyClip)"/>
  <polygon points="510,350 580,270 440,350" fill="#1e3a5e" clip-path="url(#skyClip)"/>
  <!-- Ocean -->
  <rect x="0" y="350" width="760" height="350" fill="url(#seaGrad)"/>
  <!-- Water shimmer -->
  <ellipse cx="380" cy="350" rx="340" ry="6" fill="rgba(255,255,255,0.15)"/>
  <line x1="0" y1="350" x2="760" y2="350" stroke="rgba(255,255,255,0.35)" stroke-width="2"/>
  <!-- Underwater cone (inverted reflection) -->
  <polygon points="380,640 180,350 580,350" fill="#0d2a56" clip-path="url(#seaClip)" opacity="0.9"/>
  <!-- Light rays underwater -->
  <polygon points="380,350 330,680 380,680" fill="url(#rayGrad)" opacity="0.3"/>
  <polygon points="380,350 280,680 330,680" fill="url(#rayGrad)" opacity="0.2"/>
  <polygon points="380,350 430,680 480,680" fill="url(#rayGrad)" opacity="0.2"/>
  <polygon points="380,350 230,680 280,680" fill="url(#rayGrad)" opacity="0.12"/>
  <polygon points="380,350 480,680 530,680" fill="url(#rayGrad)" opacity="0.12"/>
  <!-- Stars in sky -->
  <circle cx="120" cy="80" r="1.5" fill="rgba(255,255,255,0.7)"/>
  <circle cx="200" cy="50" r="1" fill="rgba(255,255,255,0.5)"/>
  <circle cx="600" cy="70" r="1.5" fill="rgba(255,255,255,0.6)"/>
  <circle cx="680" cy="100" r="1" fill="rgba(255,255,255,0.5)"/>
  <circle cx="500" cy="40" r="2" fill="rgba(255,255,255,0.8)"/>
  <circle cx="160" cy="140" r="1" fill="rgba(255,255,255,0.4)"/>
  <circle cx="640" cy="150" r="1" fill="rgba(255,255,255,0.4)"/>
</svg>
